<?xml version="1.0" standalone="no"?><!DOCTYPE svg PUBLIC "-//W3C//DTD SVG 1.1//EN" "http://www.w3.org/Graphics/SVG/1.1/DTD/svg11.dtd"><svg t="1537369230621" class="icon" style="" viewBox="0 0 1025 1024" version="1.1" xmlns="http://www.w3.org/2000/svg" p-id="12513" xmlns:xlink="http://www.w3.org/1999/xlink" width="200.1953125" height="200"><defs><style type="text/css"></style></defs><path d="M2.327273 1010.036364c-2.327273-11.636364-2.327273-41.890909 0-74.472728 6.981818-58.181818 30.254545-100.072727 65.163636-125.672727 25.6-18.618182 58.181818-27.927273 86.109091-34.909091 13.963636-2.327273 27.927273-6.981818 39.563636-9.309091 69.818182-16.290909 141.963636-32.581818 195.490909-102.4 4.654545-4.654545 32.581818-46.545455-41.890909-137.309091-32.581818-39.563636-53.527273-93.090909-62.836363-160.581818-9.309091-69.818182-2.327273-134.981818 4.654545-176.872727 9.309091-48.872727 37.236364-93.090909 79.127273-125.672727 41.890909-32.581818 93.090909-48.872727 144.290909-48.872728s102.4 16.290909 144.290909 48.872728c41.890909 32.581818 69.818182 76.8 79.127273 128 6.981818 41.890909 13.963636 107.054545 4.654545 176.872727-9.309091 65.163636-30.254545 118.690909-62.836363 160.581818-74.472727 90.763636-44.218182 132.654545-41.890909 137.309091 53.527273 72.145455 125.672727 88.436364 195.490909 102.4 13.963636 2.327273 27.927273 6.981818 41.890909 9.309091 25.6 6.981818 58.181818 16.290909 83.781818 34.909091 76.8 53.527273 69.818182 169.890909 67.490909 197.818182H2.327273zM512 44.218182c-44.218182 0-88.436364 13.963636-125.672727 41.890909-18.618182 13.963636-32.581818 30.254545-44.218182 46.545454-11.636364 18.618182-18.618182 39.563636-23.272727 60.509091-6.981818 39.563636-13.963636 102.4-4.654546 167.563637 9.309091 60.509091 27.927273 109.381818 55.854546 144.290909 34.909091 44.218182 55.854545 83.781818 55.854545 118.690909 2.327273 30.254545-9.309091 48.872727-16.290909 55.854545-60.509091 81.454545-141.963636 97.745455-214.109091 114.036364-13.963636 2.327273-25.6 6.981818-39.563636 9.309091-23.272727 6.981818-51.2 16.290909-74.472728 30.254545-16.290909 11.636364-27.927273 25.6-37.236363 46.545455-6.981818 16.290909-13.963636 37.236364-16.290909 58.181818-2.327273 9.309091-2.327273 18.618182-2.327273 30.254546v9.30909h961.163636v-9.30909c0-11.636364 0-20.945455-2.327272-32.581819-6.981818-46.545455-23.272727-81.454545-53.527273-102.4-20.945455-16.290909-48.872727-23.272727-74.472727-30.254545-13.963636-2.327273-25.6-6.981818-41.890909-9.309091-72.145455-16.290909-153.6-34.909091-214.109091-114.036364-4.654545-6.981818-16.290909-25.6-16.290909-55.854545 2.327273-34.909091 20.945455-76.8 55.854545-118.690909 30.254545-34.909091 48.872727-83.781818 55.854545-144.290909 9.309091-65.163636 2.327273-125.672727-4.654545-167.563637-4.654545-20.945455-11.636364-41.890909-23.272727-60.509091s-25.6-34.909091-44.218182-46.545454c-23.272727-25.6-67.490909-41.890909-111.709091-41.890909z" p-id="12514" fill="#a7a7a7"></path></svg>