<?xml version="1.0" standalone="no"?><!DOCTYPE svg PUBLIC "-//W3C//DTD SVG 1.1//EN" "http://www.w3.org/Graphics/SVG/1.1/DTD/svg11.dtd"><svg t="1537539077731" class="icon" style="" viewBox="0 0 1024 1024" version="1.1" xmlns="http://www.w3.org/2000/svg" p-id="3098" xmlns:xlink="http://www.w3.org/1999/xlink" width="200" height="200"><defs><style type="text/css"></style></defs><path d="M940 191.58a83.38 83.38 0 0 0-61.2-26.75H634.16a28.68 28.68 0 0 0-27.87 21.94s-18.69 87.5-20.2 93-4.74 8.82-13.24 8.82H145.47a83.65 83.65 0 0 0-62 27.56c-14.41 16-21.19 36.08-19.07 56.61q0 0.26 0.06 0.52L114 780.5v0.21c4.82 37.3 37.16 77.56 81 77.56h400.46a28.68 28.68 0 0 0 0-57.35H195c-11.89 0-22.62-16.37-24.1-27.46l-49.47-406.74c-0.47-5.26 2.24-9.49 4.62-12.12a26.93 26.93 0 0 1 19.42-8.6h458.78a28.68 28.68 0 0 0 27.88-22l22-93a12.05 12.05 0 0 1 11.47-8.82h213.2a26.23 26.23 0 0 1 19 8.25 17.47 17.47 0 0 1 5 13.15l-22.69 243.13a28.68 28.68 0 1 0 57.11 5.29l22.69-243.31v-0.31c1.74-20.79-5.34-40.97-19.91-56.8z" p-id="3099" fill="#ff710b"></path><path d="M791.81 523.81c-92.41 0-167.33 75-167.33 167.43s74.92 167.43 167.33 167.43 167.33-75 167.33-167.43-74.92-167.43-167.33-167.43z m0 294.27a126.84 126.84 0 1 1 126.77-126.84 126.8 126.8 0 0 1-126.77 126.85z" p-id="3100" fill="#ff710b"></path><path d="M850.8 634.19l-87.57 88.24-34.4-38.7a12.72 12.72 0 0 0-17.65 0 12.58 12.58 0 0 0 0 17.8l46.34 46.69a12.37 12.37 0 0 0 9.71 3.61 12.19 12.19 0 0 0 9.69-3.61L872.45 652a12.6 12.6 0 0 0 0-17.8c-4.72-4.77-12.93-4.77-21.65-0.01zM142.9 222.18h359.4a28.68 28.68 0 1 0 0-57.35H142.9a28.68 28.68 0 0 0 0 57.35z" p-id="3101" fill="#ff710b"></path></svg>