<?xml version="1.0" standalone="no"?><!DOCTYPE svg PUBLIC "-//W3C//DTD SVG 1.1//EN" "http://www.w3.org/Graphics/SVG/1.1/DTD/svg11.dtd"><svg t="1537597863127" class="icon" style="" viewBox="0 0 1024 1024" version="1.1" xmlns="http://www.w3.org/2000/svg" p-id="11150" xmlns:xlink="http://www.w3.org/1999/xlink" width="200" height="200"><defs><style type="text/css"></style></defs><path d="M903.4 685.9c-7.9 0-14.5 6.4-14.5 14.5v86.9c0 40-32.6 72.4-72.4 72.4h-86.9c-7.9 0-14.5 6.4-14.5 14.5s6.4 14.5 14.5 14.5h86.9c55.9 0 101.4-45.5 101.4-101.4v-86.9c0-7.9-6.4-14.5-14.5-14.5zM120.6 338.1c7.9 0 14.5-6.6 14.5-14.5v-86.9c0-40 32.6-72.4 72.4-72.4h86.9c7.9 0 14.5-6.6 14.5-14.5s-6.6-14.5-14.5-14.5h-86.9c-55.9-0.2-101.4 45.3-101.4 101.4v86.9c0 7.9 6.6 14.5 14.5 14.5z m174 521.9h-86.9c-40 0-72.4-32.6-72.4-72.4v-86.9c0-7.9-6.6-14.5-14.5-14.5s-14.5 6.4-14.5 14.5v86.9c0 55.9 45.5 101.4 101.4 101.4h86.9c7.9 0 14.5-6.4 14.5-14.5 0-8.2-6.6-14.5-14.5-14.5z m521.9-725h-86.9c-7.9 0-14.5 6.6-14.5 14.5s6.4 14.5 14.5 14.5h86.9c40 0 72.4 32.6 72.4 72.4v86.9c0 7.9 6.4 14.5 14.5 14.5 7.9 0 14.5-6.6 14.5-14.5v-86.9c0-55.9-45.5-101.4-101.4-101.4z m-580 145h72.4v231.9h-72.4V280z m116 0h43.6v231.9h-43.6V280z m87.1 0H512v231.9h-72.4V280z m116 0h115.9v231.9H555.6V280z m159.3 0h72.4v231.9h-72.4V280zM236.5 599h72.4v145h-72.4V599z m116 0h43.6v145h-43.6V599z m87.1 0H512v145h-72.4V599z m116 0h115.9v145H555.6V599z m159.3 0h72.4v145h-72.4V599z m174-43.5c0-7.9-6.4-14.5-14.5-14.5H149.6c-7.9 0-14.5 6.4-14.5 14.5 0 7.9 6.4 14.5 14.5 14.5h725c7.9 0 14.3-6.4 14.3-14.5z m0 0" p-id="11151" fill="#ff710b"></path></svg>