<?xml version="1.0" standalone="no"?><!DOCTYPE svg PUBLIC "-//W3C//DTD SVG 1.1//EN" "http://www.w3.org/Graphics/SVG/1.1/DTD/svg11.dtd"><svg t="1537597802845" class="icon" style="" viewBox="0 0 1301 1024" version="1.1" xmlns="http://www.w3.org/2000/svg" p-id="10146" xmlns:xlink="http://www.w3.org/1999/xlink" width="254.1015625" height="200"><defs><style type="text/css"></style></defs><path d="M0 394.971429h1301.942857v-131.657143H0v-82.358857C0 81.188571 84.8896 0 189.220571 0h923.501715C1217.067886 0 1301.942857 81.188571 1301.942857 180.955429v662.089142C1301.942857 942.811429 1217.067886 1024 1112.722286 1024h-923.501715C84.874971 1024 0 942.811429 0 843.044571V394.971429z m1056.373029 350.120228h-270.774858a49.181257 49.181257 0 0 0-49.093485 49.2544 49.181257 49.181257 0 0 0 49.093485 49.2544h270.774858a49.181257 49.181257 0 0 0 49.108114-49.2544 49.181257 49.181257 0 0 0-49.108114-49.2544z" p-id="10147" fill="#ff710b"></path></svg>