<?xml version="1.0" standalone="no"?><!DOCTYPE svg PUBLIC "-//W3C//DTD SVG 1.1//EN" "http://www.w3.org/Graphics/SVG/1.1/DTD/svg11.dtd"><svg t="1537674488050" class="icon" style="" viewBox="0 0 1024 1024" version="1.1" xmlns="http://www.w3.org/2000/svg" p-id="3477" xmlns:xlink="http://www.w3.org/1999/xlink" width="200" height="200"><defs><style type="text/css"></style></defs><path d="M140.1 826.3H112V197.7h28.2l-0.1 628.6z m28.1-0.4H154V197.7h14.3v628.2z m42 0h-13.8V197.7h13.8v628.2z m70.1 0h-13.8V197.7h13.8v628.2z m70.1 0h-27.7V197.7h27.7v628.2z m56.2 0h-13.9V197.7h13.8l0.1 628.2z m28.1 0h-13.8V197.7h13.8v628.2z m28.2 0h-13.8V197.7h13.8v628.2z m70 0h-28.2V197.7h28.2v628.2z m70.2 0h-28.2V197.7h28.2v628.2z m56.2 0h-28.2V197.7h28.2v628.2z m56.3 0h-28.2V197.7h28.2v628.2z m41.9 0h-28.2V197.7h28.2v628.2z m84.5 0h-42V197.7h42v628.2z m28 0h-14.3V197.7H870v628.2z m42 0.4h-28.2V197.7H912v628.6z" p-id="3478" fill="#ffffff"></path></svg>