<?xml version="1.0" standalone="no"?><!DOCTYPE svg PUBLIC "-//W3C//DTD SVG 1.1//EN" "http://www.w3.org/Graphics/SVG/1.1/DTD/svg11.dtd"><svg t="1537597964224" class="icon" style="" viewBox="0 0 1024 1024" version="1.1" xmlns="http://www.w3.org/2000/svg" p-id="12838" xmlns:xlink="http://www.w3.org/1999/xlink" width="200" height="200"><defs><style type="text/css"></style></defs><path d="M639.204969 718.708075c-63.602484 44.521739-95.403727 69.962733-95.403727 76.322981-6.360248 6.360248-19.080745 6.360248-31.801242 0 0 0-6.360248-6.360248-19.080745-12.720497-63.602484-44.521739-254.409938-184.447205-343.453416-305.291925-31.801242-44.521739-69.962733-101.763975-69.962733-171.726709 0-63.602484 25.440994-120.84472 69.962733-165.366459 44.521739-44.521739 101.763975-63.602484 165.366459-63.602485 76.322981 6.360248 139.925466 63.602484 184.447205 120.844721 6.360248 6.360248 19.080745 12.720497 25.440994 12.720497s25.440994-6.360248 31.801242-12.720497c63.602484-76.322981 127.204969-120.84472 184.447205-120.844721 82.68323-6.360248 146.285714 31.801242 203.52795 114.484472 12.720497 19.080745 31.801242 19.080745 50.881988 6.360249 19.080745-12.720497 19.080745-31.801242 6.360248-50.881988C931.776398 44.521739 842.732919 0 740.968944 0c-69.962733 0-139.925466 38.161491-209.888199 114.484472C473.838509 63.602484 403.875776 12.720497 314.832298 6.360248 238.509317 0 162.186335 31.801242 104.944099 89.043478 41.341615 146.285714 9.540373 222.608696 9.540373 305.291925c0 95.403727 50.881988 165.36646 82.683229 216.248448 108.124224 146.285714 368.89441 324.372671 375.254659 330.732919 6.360248 6.360248 12.720497 6.360248 19.080745 12.720497 12.720497 6.360248 19.080745 6.360248 31.801242 6.360248 19.080745 0 38.161491-6.360248 57.242236-19.080745 0 0 6.360248-6.360248 101.763976-76.322981 12.720497-12.720497 19.080745-31.801242 6.360248-50.881988-6.360248-19.080745-31.801242-19.080745-44.521739-6.360248z" fill="#ff710b" p-id="12839"></path><path d="M976.298137 553.341615h-120.844721V432.496894c0-25.440994-19.080745-38.161491-38.161491-38.16149-25.440994 0-38.161491 19.080745-38.16149 38.16149v120.844721h-120.844721c-25.440994 0-38.161491 19.080745-38.16149 38.161491 0 25.440994 19.080745 38.161491 38.16149 38.16149h120.844721v120.844721c0 25.440994 19.080745 38.161491 38.16149 38.16149 25.440994 0 38.161491-19.080745 38.161491-38.16149V636.024845h120.844721c25.440994 0 38.161491-19.080745 38.16149-38.161491 0-25.440994-12.720497-44.521739-38.16149-44.521739z" fill="#ff710b" p-id="12840"></path></svg>