<?xml version="1.0" standalone="no"?><!DOCTYPE svg PUBLIC "-//W3C//DTD SVG 1.1//EN" "http://www.w3.org/Graphics/SVG/1.1/DTD/svg11.dtd"><svg t="1537597901946" class="icon" style="" viewBox="0 0 1024 1024" version="1.1" xmlns="http://www.w3.org/2000/svg" p-id="11894" xmlns:xlink="http://www.w3.org/1999/xlink" width="200" height="200"><defs><style type="text/css"></style></defs><path d="M925.837818 273.976932 750.594585 98.667184l0-1.584078-60.335157 0 0 214.782761L513.08317 414.679487l-178.148399-101.750405L334.93477 97.083106l-60.338227 0 0 0.505513-0.054235-0.054235L98.164229 273.976932l-0.657986 0 0 0.655939 0 0 0 81.090876 0 0 0 194.84978 0 78.816067 0 2.27481 57.326637 57.347103 0 0 0 0L274.543332 808.765961l0.004093-0.005117 0 118.15605L327.171969 926.916894l6.642281 0 356.86371 0 18.234293 0 41.037648 0L749.949902 807.325146l176.541809-176.614463 0-81.084737L926.491711 355.723747l0-81.08576 0-0.661056L925.837818 273.976932 925.837818 273.976932zM869.168144 606.975095 749.952972 726.240409l-59.272965 58.792011 0 82.096786-356.857571 0 0-80.19446-59.272965-59.248406 0 0L154.833903 607.92677 154.833903 298.377668l119.764688-119.813806 0 169.055301 0.121773 0-0.171915 0.303922 240.061494 136.03014 59.055001-34.669614 175.196161-101.664448 1.732457 0 0-1.004887 0.310062-0.181125-0.310062-0.531096L750.593562 179.752944l118.573559 118.624724L869.167121 606.975095 869.168144 606.975095z" p-id="11895" fill="#ff710b"></path><path d="M394.238434 571.027371l237.576907 0 0 59.789735L394.238434 630.817106 394.238434 571.027371 394.238434 571.027371z" p-id="11896" fill="#ff710b"></path></svg>