<?xml version="1.0" standalone="no"?><!DOCTYPE svg PUBLIC "-//W3C//DTD SVG 1.1//EN" "http://www.w3.org/Graphics/SVG/1.1/DTD/svg11.dtd"><svg t="1537597780203" class="icon" style="" viewBox="0 0 1024 1024" version="1.1" xmlns="http://www.w3.org/2000/svg" p-id="9381" xmlns:xlink="http://www.w3.org/1999/xlink" width="200" height="200"><defs><style type="text/css"></style></defs><path d="M618.486756 914.533317c-27.974819 0-55.341489-37.82682-79.667419-71.153343-6.93289-9.608742-16.055113-22.136596-21.041929-27.123411-2.675852 1.702815-7.905927 5.716593-17.14978 15.690224-9.608742 10.33852-20.312151 23.352892-30.650671 36.002376-28.826226 35.272598-39.043117 46.705785-50.354674 46.705784-15.203706 0-29.312745-17.757928-52.787267-49.260007-9.730372-13.014372-19.825632-26.515263-29.069486-36.488894-12.649483-13.500891-17.39304-13.74415-17.514669-13.74415-2.310963 0-16.298373 1.946074-67.139565 40.137783-27.73156 20.79867-56.071267 41.962228-56.314527 42.205488l-12.162965-18.487706c0.243259-0.243259 25.420596-21.771707 53.881934-43.056896 53.760304-40.381043 72.49127-45.002969 81.856753-45.002969 19.825632 0 38.191709 22.623114 66.044898 59.963416 10.095261 13.62252 25.055707 33.448153 32.475116 38.556598 6.93289-5.716593 22.014966-24.2043 32.353486-36.853783 34.299561-41.962228 52.179119-61.666231 67.869343-61.666231 11.311557 0 19.704003 11.068298 39.408006 38.191709 10.33852 14.230669 22.014966 30.407412 33.691412 42.813636 15.568595 16.663262 23.596152 18.366077 26.272004 18.366077 2.919112 0 9.730372-1.946074 22.136596-15.325336 9.973631-10.703409 19.947262-24.934078 29.556004-38.678228 17.879558-25.298967 30.042523-42.570377 44.151562-45.124599 9.000594-3.162371 20.67704 4.500297 31.988597 12.041335 10.581779 6.93289 24.569189 17.028151 41.840599 30.042523 29.069486 22.014966 57.774082 45.246229 58.017342 45.489488L830.85212 897.626797c-44.394821-36.124005-98.276755-76.626678-111.777646-82.464901h-0.364889c-5.838223 2.919112-19.460744 22.258225-28.582967 35.150968-22.379855 31.623708-45.367858 64.220454-71.639862 64.220453z" fill="#ff710b" p-id="9382"></path><path d="M850.677753 902.370353h-24.32593V149.969355c0-7.419408-8.757335-16.176743-16.176743-16.176743H213.82492c-7.419408 0-16.176743 8.757335-16.176743 16.176743v752.400998h-24.32593V149.969355c0-20.79867 19.704003-40.502673 40.502673-40.502672h596.228531c20.79867 0 40.502673 19.704003 40.502672 40.502672v752.400998z" fill="#ff710b" p-id="9383"></path><path d="M313.196342 322.318565H710.682029v24.32593H313.196342zM313.196342 435.920656H710.682029v24.325929H313.196342zM313.196342 535.292077H710.682029v24.32593H313.196342z" fill="#ff710b" p-id="9384"></path></svg>