<?xml version="1.0" standalone="no"?><!DOCTYPE svg PUBLIC "-//W3C//DTD SVG 1.1//EN" "http://www.w3.org/Graphics/SVG/1.1/DTD/svg11.dtd"><svg t="1537674389374" class="icon" style="" viewBox="0 0 1024 1024" version="1.1" xmlns="http://www.w3.org/2000/svg" p-id="1933" xmlns:xlink="http://www.w3.org/1999/xlink" width="200" height="200"><defs><style type="text/css"></style></defs><path d="M958.693177 381.595879c0-30.164397-11.755084-58.529768-33.076074-79.843533a112.059832 112.059832 0 0 0-79.785733-33.083299 112.153757 112.153757 0 0 0-79.857984 33.083299 112.160982 112.160982 0 0 0-33.061624 79.843533c0 30.128272 11.740634 58.464743 33.076074 79.800184 4.414478 4.421703 9.197432 8.308756 14.168235 11.892359-37.916828 37.938503-98.115572 48.580936-147.281732 22.086841-37.411077-20.15054-66.592874-55.148465-77.950583-92.964143-4.920229-22.794892 7.369505-79.265533 8.026981-81.013985 35.026826-19.189614 58.833218-56.420066 58.833218-99.105397 0-30.106597-11.740634-58.435843-33.076074-79.778509a112.081507 112.081507 0 0 0-79.771283-33.076074 112.182657 112.182657 0 0 0-79.857984 33.076074 112.081507 112.081507 0 0 0-33.076074 79.778509 112.204332 112.204332 0 0 0 33.076074 79.872433 112.702858 112.702858 0 0 0 30.214972 21.487166c0.238425 0.4913 0.4335 0.989826 0.693601 1.466676 2.413152 4.486728 12.051309 55.09789 5.982304 77.336457-11.516658 38.198603-41.117505 73.731179-79.027108 94.156269-50.705087 27.288845-111.438482 16.711437-150.113935-22.758767 29.015621-20.446765 48.046285-54.136965 48.046286-92.248868 0-30.207747-11.711734-58.573118-32.989375-79.843533-21.320991-21.335441-49.686361-33.083299-79.857983-33.083299s-58.529768 11.747859-79.857983 33.083299a112.204332 112.204332 0 0 0-33.076075 79.843533 112.132082 112.132082 0 0 0 33.090525 79.800184 112.160982 112.160982 0 0 0 48.47256 28.596571l94.279094 391.327962a43.328357 43.328357 0 0 0 42.136231 33.198899h463.71529a43.335582 43.335582 0 0 0 42.13623-33.198899l94.293544-391.392987c46.991434-13.648035 81.476385-56.998067 81.476385-108.338955z" fill="#ffffff" p-id="1934"></path></svg>