<?xml version="1.0" standalone="no"?><!DOCTYPE svg PUBLIC "-//W3C//DTD SVG 1.1//EN" "http://www.w3.org/Graphics/SVG/1.1/DTD/svg11.dtd"><svg t="1537676392151" class="icon" style="" viewBox="0 0 1024 1024" version="1.1" xmlns="http://www.w3.org/2000/svg" p-id="10889" xmlns:xlink="http://www.w3.org/1999/xlink" width="200" height="200"><defs><style type="text/css"></style></defs><path d="M710.4 422.4L512 620.8 313.6 422.4c-6.4-6.4-25.6-6.4-32 0-6.4 6.4-6.4 25.6 0 32l204.8 204.8c6.4 6.4 19.2 12.8 25.6 12.8 12.8 0 19.2-6.4 25.6-12.8l204.8-204.8c6.4-6.4 6.4-25.6 0-32-6.4-12.8-19.2-12.8-32 0M512 0C230.4 0 0 230.4 0 512s230.4 512 512 512 512-230.4 512-512-230.4-512-512-512m0 979.2C256 979.2 44.8 768 44.8 512S256 44.8 512 44.8 979.2 256 979.2 512 768 979.2 512 979.2m0 0z" fill="#999999" p-id="10890"></path></svg>