<?xml version="1.0" standalone="no"?><!DOCTYPE svg PUBLIC "-//W3C//DTD SVG 1.1//EN" "http://www.w3.org/Graphics/SVG/1.1/DTD/svg11.dtd"><svg t="1537676229677" class="icon" style="" viewBox="0 0 1038 1024" version="1.1" xmlns="http://www.w3.org/2000/svg" p-id="8384" xmlns:xlink="http://www.w3.org/1999/xlink" width="202.734375" height="200"><defs><style type="text/css"></style></defs><path d="M685.785022 282.254455c-4.773723-4.948709-11.462053-8.03807-18.881023-8.03807s-14.104229 3.090385-18.877953 8.03807l-0.025583 0-125.058251 125.056204L398.952294 283.324834l-0.918929-0.919952-0.151449-0.149403-0.014326 0c-4.693906-4.39203-10.981099-7.099698-17.916045-7.099698-6.933923 0-13.223163 2.707668-17.916045 7.099698-5.118578 4.79112-8.335852 11.586896-8.335852 19.151176 0 7.384178 3.058662 14.044878 7.965415 18.814508l95.624894 95.689363-55.348586 0c-14.498202 0-26.253944 11.752672-26.253944 26.251897 0 14.497179 11.754718 26.250874 26.253944 26.250874l94.750991 0c0 0.038886-0.005117 0.077771-0.005117 0.116657l0 78.713736-94.745874 0c-14.498202 0-26.253944 11.755742-26.253944 26.250874 0 14.500249 11.754718 26.251897 26.253944 26.251897l94.745874 0 0 126.798894c0 14.499226 11.753695 26.249851 26.253944 26.249851s26.251897-11.750625 26.251897-26.249851L549.193087 599.745437l94.744851 0c14.498202 0 26.251897-11.751648 26.251897-26.251897 0-14.495132-11.753695-26.250874-26.251897-26.250874l-94.744851 0 0-78.713736c0-0.038886-0.00614-0.077771-0.008186-0.116657l94.753037 0c14.498202 0 26.251897-11.752672 26.251897-26.250874 0-14.498202-11.753695-26.251897-26.251897-26.251897l-55.343469 0 97.134271-97.165993c0 0 0 0.001023-0.002047 0.00307 4.591575-4.728698 7.429203-11.167341 7.429203-18.278295C693.15692 293.38905 690.341804 286.977014 685.785022 282.254455z" p-id="8385" fill="#999999"></path><path d="M974.030935 637.227096c-1.416256-5.172813-2.182712-10.611685-2.171456-16.232706 0.023536-11.672854 3.338025-22.567995 9.052167-31.82073 2.515287-4.074805 5.493108-7.832386 8.867972-11.19497l-0.001023 0c1.769296-1.763157 3.475148-3.586688 5.120624-5.465478 16.845667-19.225877 27.079752-44.392046 27.133987-71.960938-0.054235-27.567869-10.288321-52.736085-27.133987-71.960938-1.644453-1.87879-3.351328-3.703345-5.120624-5.465478l0.001023 0c-3.374864-3.361561-6.352685-7.120165-8.867972-11.19497-5.714142-9.252735-9.027607-20.146852-9.052167-31.818683-0.011256-5.622044 0.7552-11.06194 2.171456-16.23373 2.818185-10.292414 8.255011-19.504216 15.57472-26.853601 19.791765-19.871583 31.999808-47.292096 31.939433-77.555353-0.053212-25.584702-13.216-121.188106-96.67276-121.188106l-8.026814 0L511.151679 138.281413 105.457844 138.281413l-8.026814 0c-83.45676 0-96.620571 95.603405-96.67276 121.188106-0.060375 30.263258 12.148691 57.682747 31.939433 77.555353 7.318686 7.349385 12.755512 16.561188 15.573697 26.853601 1.416256 5.17179 2.182712 10.611685 2.171456 16.23373-0.023536 11.672854-3.337002 22.566972-9.052167 31.818683-2.515287 4.074805-5.492084 7.833409-8.867972 11.19497l0.001023 0c-1.769296 1.762133-3.475148 3.586688-5.120624 5.465478-16.844643 19.224854-27.078729 44.392046-27.133987 71.960938 0.055259 27.568892 10.288321 52.735062 27.133987 71.960938 1.645476 1.87879 3.351328 3.702322 5.120624 5.465478L32.523741 577.97869c3.374864 3.362584 6.352685 7.120165 8.867972 11.19497 5.715165 9.252735 9.027607 20.146852 9.052167 31.82073 0.011256 5.621021-0.7552 11.060917-2.171456 16.232706-2.818185 10.29139-8.255011 19.505239-15.573697 26.851555-19.791765 19.872606-31.999808 47.292096-31.939433 77.55433 0.052189 25.585725 13.216 121.190153 96.67276 121.190153l8.026814 0 405.694859 0 405.693836 0 8.026814 0c83.45676 0 96.619548-95.604428 96.67276-121.190153 0.061398-30.262234-12.147668-57.681724-31.939433-77.55433C982.286969 656.732335 976.84912 647.518486 974.030935 637.227096zM920.302243 809.611212 511.151679 809.611212 102.288664 809.611212c-11.323906 0-47.952128-7.366781-47.952128-68.074422-0.007163-3.38305 0.275269-6.696516 0.799202-9.930163 2.079358-12.8384 8.16189-24.337291 16.945951-33.157167 2.034333-2.042519 3.984754-4.169973 5.853311-6.368034 12.568247-14.774495 21.280676-32.921807 24.593118-52.892651 0.988514-5.950526 1.50426-12.060687 1.49198-18.293645-0.058328-28.348652-10.872628-54.160527-28.575826-73.583902-1.195222-1.310855-2.421142-2.593058-3.676739-3.845585-11.018961-10.972912-17.856693-26.142403-17.916045-42.914392 0.060375-16.771989 6.897084-31.94148 17.916045-42.913369l0-0.001023c1.25662-1.251503 2.481518-2.534729 3.676739-3.845585 17.703197-19.422352 28.517497-45.235251 28.575826-73.582879 0.013303-6.233981-0.503467-12.343119-1.49198-18.293645-3.312442-19.970844-12.024871-38.118156-24.593118-52.892651-1.86958-2.197038-3.818979-4.324492-5.853311-6.368034-8.78406-8.819876-14.866592-20.318768-16.945951-33.157167-0.524956-3.233648-0.806365-6.547113-0.799202-9.930163 0-60.708664 36.628222-68.033489 47.952128-68.033489l408.863015 0 409.150564 0c11.322883 0 47.952128 7.325849 47.952128 68.033489 0.008186 3.382027-0.275269 6.696516-0.798179 9.930163-2.080382 12.837376-8.162914 24.337291-16.947997 33.157167-2.033309 2.043542-3.983731 4.169973-5.853311 6.368034-12.568247 14.774495-21.280676 32.921807-24.593118 52.892651-0.988514 5.950526-1.50426 12.060687-1.490957 18.293645 0.058328 28.348652 10.871605 54.160527 28.575826 73.582879 1.195222 1.310855 2.421142 2.594081 3.676739 3.845585l0 0.001023c11.019984 10.971889 17.85567 26.14138 17.916045 42.913369-0.060375 16.771989-6.89606 31.94148-17.916045 42.914392-1.255597 1.252527-2.481518 2.534729-3.676739 3.845585-17.704221 19.423375-28.517497 45.235251-28.575826 73.583902-0.013303 6.232958 0.502443 12.343119 1.490957 18.293645 3.312442 19.970844 12.024871 38.117133 24.593118 52.892651 1.86958 2.197038 3.818979 4.325515 5.853311 6.368034 8.785084 8.819876 14.866592 20.318768 16.947997 33.157167 0.523933 3.233648 0.806365 6.547113 0.798179 9.930163C968.255395 802.24443 931.626149 809.611212 920.302243 809.611212z" p-id="8386" fill="#999999"></path></svg>