<?xml version="1.0" standalone="no"?><!DOCTYPE svg PUBLIC "-//W3C//DTD SVG 1.1//EN" "http://www.w3.org/Graphics/SVG/1.1/DTD/svg11.dtd"><svg t="1537597741317" class="icon" style="" viewBox="0 0 1024 1024" version="1.1" xmlns="http://www.w3.org/2000/svg" p-id="8630" xmlns:xlink="http://www.w3.org/1999/xlink" width="200" height="200"><defs><style type="text/css"></style></defs><path d="M965.156 363.48a11.936 11.936 0 0 0-0.263-1.359c-0.403-1.94-0.934-3.802-1.696-5.6l-78.1-194.415c-13.533-40.319-52.376-65.035-97.82-65.136H239.091c-46.047 0-81.83 24.49-94.794 63.202L60.338 358.55c-0.4 1.167-0.84 2.9-1.202 4.667-6.097 18.722-9.162 37.945-9.162 57.242 0.066 67.834 37.283 129.768 97.091 161.657 0 0 0 0.034 0.035 0.034 0.031 0 0.031 0 0.031 0.03 0 0 0.035 0 0.035 0.035 24.621 13.126 53.57 19.788 86.192 19.788 54.671-0.166 105.318-24.186 139.833-65.303 34.354 40.783 84.596 64.636 139.172 64.97 54.141-0.43 104.253-24.384 138.439-65.137 34.52 41.117 85.227 65.036 140.172 65.036 33.252-0.162 62.767-7.162 87.625-20.788 58.905-32.187 95.455-93.888 95.425-161.03 0.097-19.282-3.066-38.645-8.868-56.271zM846.712 522.309c-15.096 8.268-33.914 12.5-55.808 12.631-40.581 0-77.566-20.59-99.156-55.545-1.531-3.297-4.096-8.757-8.894-14.024-5.5-6.163-15.495-13.46-31.95-13.46-13.263 0-25.288 5.434-32.085 13.757-4.5 5.066-6.965 10.096-8.727 13.763-21.329 34.515-58.01 55.308-97.763 55.61-40.242-0.232-77.031-20.954-98.483-55.742-1.5-3.065-4-8.227-7.895-12.595-15.661-18.687-50.711-17.723-64.374-1.434-5.025 5.498-7.662 11.03-9.358 14.792-21.526 34.52-58.545 55.212-98.925 55.35-21.524 0-39.948-4.036-54.812-11.966h-0.061c-38.12-20.29-61.81-59.743-61.84-102.92 0-12.763 2.13-25.621 6.393-38.153 0.302-0.898 0.565-1.894 0.798-2.928l82.697-195.51c1.697-5 6.833-20.228 32.55-20.228h548.354c10.56 0.632 28.752 2.5 35.211 21.52l77.435 192.82a50.08 50.08 0 0 0 1 3.831c4.297 12.561 6.43 25.324 6.43 37.98 0.07 42.677-23.218 81.925-60.737 102.45z m24.984 106.918c-18.419 0-33.313 14.895-33.313 33.32l0.066 181.788c0 10.322-8.43 18.721-18.722 18.752l-626.884 0.402c-10.328 0-18.722-8.327-18.722-18.59l-0.238-286.928c-0.035-18.394-14.96-33.252-33.319-33.252h-0.064c-18.39 0.034-33.288 14.959-33.253 33.383l0.236 286.831c0 46.975 38.284 85.193 85.36 85.193l626.98-0.4c47.015-0.1 85.262-38.42 85.262-85.429l-0.066-181.752c0-18.423-14.93-33.318-33.323-33.318z m-98.98-233.222H239.621c-18.39 0-33.32-14.93-33.32-33.323 0-18.394 14.93-33.319 33.32-33.319h533.095c18.424 0 33.314 14.925 33.314 33.32 0 18.392-14.89 33.322-33.314 33.322z m0 0" fill="#ff710b" p-id="8631"></path></svg>