<?xml version="1.0" standalone="no"?><!DOCTYPE svg PUBLIC "-//W3C//DTD SVG 1.1//EN" "http://www.w3.org/Graphics/SVG/1.1/DTD/svg11.dtd"><svg t="1537676088084" class="icon" style="" viewBox="0 0 1024 1024" version="1.1" xmlns="http://www.w3.org/2000/svg" p-id="5204" xmlns:xlink="http://www.w3.org/1999/xlink" width="200" height="200"><defs><style type="text/css"></style></defs><path d="M992 256H781.9c0.5-0.2 1-0.3 1.6-0.5 63.4-20.2 106.3-49 127.5-85.6 18.4-31.7 18.6-67.9 0.6-99.2-12.3-21.4-32.3-39.3-57.8-51.9C828.8 6.5 799.6 0 769.3 0c-44.1 0-87 13.6-127.6 40.3-31.1 20.5-60.8 48.8-88.2 84.1-16.4 21.1-30.1 42.2-40.8 60.6-10.8-18.4-24.4-39.5-40.8-60.6-27.4-35.3-57.1-63.6-88.2-84.1C343.1 13.6 300.2 0 256 0c-30.3 0-59.6 6.5-84.5 18.8-25.5 12.6-45.4 30.5-57.8 51.9-18 31.3-17.8 67.4 0.6 99.2 21.3 36.7 64.2 65.5 127.5 85.6 0.5 0.2 1 0.3 1.6 0.5H32c-17.7 0-32 14.3-32 32v192c0 17.7 14.3 32 32 32h32v480c0 17.7 14.3 32 32 32h832c17.7 0 32-14.3 32-32V833.1c0-17.7-14.3-32-32-32s-32 14.3-32 32V960H128V512h167.4c17.7 0 32-14.3 32-32s-14.3-32-32-32H64V320h896v128H569.2c-17.7 0-32 14.3-32 32s14.3 32 32 32H896v134.1c0 17.7 14.3 32 32 32s32-14.3 32-32V512h32c17.7 0 32-14.3 32-32V288c0-17.7-14.3-32-32-32z m-388-92.4C655.5 97.5 711.1 64 769.3 64c44.6 0 75.8 19.4 86.8 38.7 6.7 11.6 6.5 23.1-0.5 35.1-7.3 12.6-29 36.8-91.6 56.8-51.7 16.5-118.7 26.1-199.6 28.7 10.1-17.7 23.3-38.7 39.6-59.7z m-434.3-25.8c-7-12.1-7.2-23.6-0.5-35.1C180.3 83.4 211.4 64 256 64c99.3 0 170.6 99.2 204.7 159.3-80.8-2.6-147.8-12.3-199.5-28.7-62.5-20-84.2-44.2-91.5-56.8z" fill="#999999" p-id="5205"></path><path d="M401.4 448c-17.7 0-32 14.3-32 32s14.3 32 32 32h46.8c17.7 0 32-14.3 32-32s-14.3-32-32-32h-46.8z" fill="#999999" p-id="5206"></path><path d="M928 737.1m-32 0a32 32 0 1 0 64 0 32 32 0 1 0-64 0Z" fill="#999999" p-id="5207"></path></svg>