<?xml version="1.0" standalone="no"?><!DOCTYPE svg PUBLIC "-//W3C//DTD SVG 1.1//EN" "http://www.w3.org/Graphics/SVG/1.1/DTD/svg11.dtd"><svg t="1537675969391" class="icon" style="" viewBox="0 0 1024 1024" version="1.1" xmlns="http://www.w3.org/2000/svg" p-id="4521" xmlns:xlink="http://www.w3.org/1999/xlink" width="200" height="200"><defs><style type="text/css"></style></defs><path d="M603.967282 606.795259c16.903868 0 30.575761-13.679893 30.575761-30.583761s-13.671893-30.583761-30.575761-30.583761h-18.591855l21.935828-36.687713a30.631761 30.631761 0 0 0-10.543917-41.967672 30.66376 30.66376 0 0 0-41.959672 10.543917l-40.727682 68.111468h-4.095968l-40.719682-68.111468a30.655761 30.655761 0 0 0-41.951672-10.543917 30.607761 30.607761 0 0 0-10.559918 41.967672l21.935829 36.687713h-18.623855c-16.887868 0-30.583761 13.679893-30.583761 30.583761s13.687893 30.583761 30.583761 30.583761h61.351521v38.231702h-61.351521c-16.887868 0-30.583761 13.679893-30.583761 30.583761s13.687893 30.583761 30.583761 30.583761h61.351521v132.550964a30.575761 30.575761 0 1 0 61.167522 0V706.194483h61.383521c16.903868 0 30.575761-13.679893 30.575761-30.583761s-13.671893-30.583761-30.575761-30.583761h-61.383521V606.795259h61.383521z" fill="#999999" p-id="4522"></path><path d="M796.973774 0H227.026226c-65.31149 0-118.431075 53.135585-118.431074 118.463075v787.08185c0 65.28749 53.119585 118.455075 118.431074 118.455075h569.947548c65.28749 0 118.431075-53.167585 118.431074-118.455075V118.463075C915.404848 53.135585 862.261264 0 796.973774 0zM227.026226 61.167522h569.947548c31.567753 0 57.255553 25.703799 57.255552 57.287553v19.935844c-0.639995 1.199991-1.32799 2.367982-1.823985 3.671971C812.565652 247.774064 672.454746 321.597488 511.640003 321.597488c-159.662753 0-299.53366-73.167428-340.157343-177.894611-0.463996-1.207991-1.119991-2.271982-1.719986-3.383973v-21.855829c0.008-31.591753 25.695799-57.295552 57.263552-57.295553z m569.947548 901.656956H227.026226c-31.567753 0-57.255553-25.687799-57.255552-57.279553v-653.834891c75.255412 80.063375 202.550418 131.062976 341.869329 131.062976 140.046906 0 267.50191-51.2476 342.589323-131.766971v654.538886c0 31.591753-25.687799 57.279553-57.255552 57.279553z" fill="#999999" p-id="4523"></path></svg>